<?xml version="1.0" encoding="utf-8"?>
<!-- Generator: Adobe Illustrator 16.0.0, SVG Export Plug-In . SVG Version: 6.00 Build 0)  -->
<!DOCTYPE svg PUBLIC "-//W3C//DTD SVG 1.1//EN" "http://www.w3.org/Graphics/SVG/1.1/DTD/svg11.dtd">
<svg version="1.1" id="Layer_2" xmlns="http://www.w3.org/2000/svg" xmlns:xlink="http://www.w3.org/1999/xlink" x="0px" y="0px"
	 width="1190.551px" height="841.89px" viewBox="0 0 1190.551 841.89" enable-background="new 0 0 1190.551 841.89"
	 xml:space="preserve">
<polyline fill="none" stroke="#000000" stroke-width="0.48" stroke-linecap="round" stroke-linejoin="round" stroke-miterlimit="10" points="
	945.96,531.96 948.24,530.28 950.4,528.24 "/>
<polygon fill="#A7A9AB" points="993.384,509.281 992.784,504.001 991.584,498.841 988.584,487.56 951.96,496.68 955.08,509.52 
	955.56,512.4 955.68,515.28 955.32,518.16 954.6,520.92 953.52,523.56 952.08,525.96 950.4,528.24 948.24,530.28 945.96,531.96 
	943.439,533.28 933.72,537.48 928.021,539.991 906.14,539.992 906.139,329.068 862.104,329.068 862.104,148.441 797.48,148.44 
	797.602,134.401 306.175,134.399 306.175,146.699 265.158,146.699 265.158,221.692 235.822,221.692 235.822,276.335 
	265.158,276.335 265.16,331.626 714.346,331.626 714.346,497.871 692.64,497.871 692.64,489.083 271.58,489.083 271.58,497.871 
	262.461,497.871 262.461,682.32 271.2,682.32 271.2,691.201 693.6,691.203 693.6,682.32 755.4,682.32 755.4,695.176 
	821.184,695.176 821.184,680.76 835.2,680.76 835.2,639 821.184,639 821.184,631.891 834.509,626.281 862.944,626.281 
	862.944,611.059 957.624,569.4 962.304,567.121 966.864,564.24 971.184,561.121 975.144,557.521 978.744,553.681 982.104,549.48 
	984.984,545.041 987.504,540.361 989.664,535.441 991.344,530.4 992.544,525.24 993.264,519.96 993.504,514.681 "/>
<rect x="265.158" y="146.699" fill="#FFFFFF" width="19.242" height="16.261"/>
<polygon fill="#626366" points="398.76,247.92 391.56,247.92 391.561,134.399 306.175,134.399 306.175,146.699 284.4,146.699 
	284.4,162.96 265.158,162.96 265.158,245.64 348.133,245.64 348.133,230.554 351.555,230.554 351.555,331.626 391.56,331.626 
	391.56,268.44 398.76,268.44 "/>
<g>
	<rect x="411.317" y="248.101" width="1.68" height="19.859"/>
	<rect x="407.915" y="248.101" width="1.68" height="19.859"/>
	<rect x="404.514" y="248.101" width="1.68" height="19.859"/>
	<rect x="401.112" y="248.101" width="1.68" height="19.859"/>
	<rect x="414.717" y="248.101" width="1.68" height="19.859"/>
	<rect x="418.12" y="248.101" width="1.68" height="19.859"/>
	<rect x="421.52" y="248.101" width="1.68" height="19.859"/>
	<rect x="424.922" y="248.101" width="1.68" height="19.859"/>
	<rect x="428.323" y="248.101" width="1.68" height="19.859"/>
</g>
<polygon fill="#626366" points="443.28,275.52 443.28,271.2 394.2,271.2 394.2,309.24 427.62,309.24 427.62,286.68 430.08,286.68 
	430.08,309.24 455.04,309.24 455.04,275.52 "/>
<rect x="448.8" y="247.8" fill="#FFFFFF" width="13.08" height="10.86"/>
<rect x="445.5" y="261.06" fill="#FFFFFF" width="16.38" height="12.6"/>
<rect x="266.04" y="248.4" fill="#626366" width="40.2" height="39.84"/>
<polygon fill="#626366" points="308.52,248.4 308.52,290.52 266.04,290.52 266.04,329.76 348.556,329.76 348.556,248.4 "/>
<polygon fill="#626366" points="394.2,134.399 394.2,245.4 461.88,245.4 461.88,275.52 456.84,275.52 456.84,286.637 475.8,286.637 
	475.8,134.399 "/>
<polygon fill="#626366" points="478.92,134.399 478.92,288.884 456.84,288.884 456.84,311.52 394.2,311.52 394.2,332.04 
	646.68,332.04 646.68,134.399 "/>
<rect x="773.88" y="247.8" fill="#626366" width="45.48" height="17.4"/>
<g>
	<rect x="732.219" y="269.101" width="1.68" height="19.859"/>
	<rect x="728.816" y="269.101" width="1.68" height="19.859"/>
	<rect x="725.416" y="269.101" width="1.68" height="19.859"/>
	<rect x="722.014" y="269.101" width="1.68" height="19.859"/>
	<rect x="735.619" y="269.101" width="1.68" height="19.859"/>
	<rect x="739.021" y="269.101" width="1.68" height="19.859"/>
	<rect x="742.422" y="269.101" width="1.68" height="19.859"/>
	<rect x="745.824" y="269.101" width="1.68" height="19.859"/>
	<rect x="749.225" y="269.101" width="1.68" height="19.859"/>
	<rect x="752.627" y="269.101" width="1.68" height="19.859"/>
	<rect x="756.027" y="269.101" width="1.68" height="19.859"/>
</g>
<rect x="866.52" y="329.068" fill="#626366" width="39.619" height="211.052"/>
<rect x="651" y="564.84" fill="#626366" width="33.6" height="16.739"/>
<polygon fill="#626366" points="730.56,557.113 730.56,542.345 702.72,542.345 702.72,570.065 718.08,570.065 718.08,557.113 "/>
<g>
	<rect x="661.205" y="542.344" width="1.68" height="19.859"/>
	<rect x="657.803" y="542.344" width="1.68" height="19.859"/>
	<rect x="654.402" y="542.344" width="1.68" height="19.859"/>
	<rect x="651" y="542.344" width="1.68" height="19.859"/>
	<rect x="664.605" y="542.344" width="1.68" height="19.859"/>
	<rect x="668.008" y="542.344" width="1.68" height="19.859"/>
	<rect x="671.408" y="542.344" width="1.68" height="19.859"/>
	<rect x="674.811" y="542.344" width="1.68" height="19.859"/>
	<rect x="678.211" y="542.344" width="1.68" height="19.859"/>
	<rect x="681.613" y="542.344" width="1.68" height="19.859"/>
	<rect x="685.014" y="542.344" width="1.68" height="19.859"/>
</g>
<path fill="#626366" d="M862.104,566.76V501.24H818.88v-7.32h43.224V148.441H797.76v-14.042H651V328.17h62.04v-28.89h3.72v50.01
	h20.04v3.51h-20.04v141.119H738v6.001H608.52v41.88h-4.439v-42.24h-81.12v43.02h-4.92V500.4H394.32v42.18h-3.84v-44.709H262.461
	V682.32H390.48v-45.84h3.84v43.68h123.72V636.96h4.92v43.08h81.12v-43.08h4.439v43.8h212.664v-48.869l13.325-5.61h28.436v-15.222
	l15.455-6.8L862.104,566.76z M460.44,584.64H407.4v-3.961h53.04V584.64z M460.44,542.58H407.4v-3.359h53.04V542.58z M719.16,291.57
	v-46.89h102.12v46.89H719.16z M796.439,501.24h-32.496v94.26h-0.264v5.101h-33.12v-16.56H648.48v-43.92H758.52v-40.2v-6.001h37.92
	V501.24z"/>
<path fill="#FFFFFF" d="M759.621,188.332c-0.251-0.743-0.957-1.272-1.788-1.272h-13.859c-0.831,0-1.523,0.529-1.788,1.272
	l-2.621,7.547v10.079c0,0.693,0.567,1.26,1.261,1.26h1.26c0.691,0,1.26-0.567,1.26-1.26v-1.26h15.117v1.26
	c0,0.693,0.568,1.26,1.26,1.26h1.261c0.692,0,1.26-0.567,1.26-1.26v-10.079L759.621,188.332z M743.974,200.919
	c-1.045,0-1.889-0.844-1.889-1.89s0.844-1.89,1.889-1.89c1.046,0,1.89,0.844,1.89,1.89S745.02,200.919,743.974,200.919z
	 M757.833,200.919c-1.046,0-1.89-0.844-1.89-1.89s0.844-1.89,1.89-1.89c1.045,0,1.889,0.844,1.889,1.89
	S758.878,200.919,757.833,200.919z M742.085,194.619l1.889-5.669h13.859l1.889,5.669H742.085z"/>
<path fill="#FFFFFF" d="M799.479,377.415c-0.251-0.743-0.957-1.272-1.788-1.272h-13.859c-0.831,0-1.523,0.529-1.788,1.272
	l-2.621,7.547v10.079c0,0.693,0.567,1.26,1.261,1.26h1.26c0.691,0,1.26-0.567,1.26-1.26v-1.26h15.117v1.26
	c0,0.693,0.568,1.26,1.26,1.26h1.261c0.692,0,1.26-0.567,1.26-1.26v-10.079L799.479,377.415z M783.831,390.002
	c-1.045,0-1.889-0.844-1.889-1.89s0.844-1.89,1.889-1.89c1.046,0,1.89,0.844,1.89,1.89S784.877,390.002,783.831,390.002z
	 M797.69,390.002c-1.046,0-1.89-0.844-1.89-1.89s0.844-1.89,1.89-1.89c1.045,0,1.889,0.844,1.889,1.89
	S798.735,390.002,797.69,390.002z M781.942,383.702l1.889-5.669h13.859l1.889,5.669H781.942z"/>
<path fill="#FFFFFF" d="M567.81,587.542c-0.251-0.743-0.957-1.271-1.788-1.271h-13.859c-0.831,0-1.523,0.528-1.788,1.271
	l-2.621,7.547v10.08c0,0.692,0.567,1.26,1.261,1.26h1.26c0.691,0,1.26-0.567,1.26-1.26v-1.261h15.117v1.261
	c0,0.692,0.568,1.26,1.26,1.26h1.261c0.692,0,1.26-0.567,1.26-1.26v-10.08L567.81,587.542z M552.162,600.128
	c-1.045,0-1.889-0.844-1.889-1.89s0.844-1.891,1.889-1.891c1.046,0,1.89,0.845,1.89,1.891S553.208,600.128,552.162,600.128z
	 M566.021,600.128c-1.046,0-1.89-0.844-1.89-1.89s0.844-1.891,1.89-1.891c1.045,0,1.889,0.845,1.889,1.891
	S567.066,600.128,566.021,600.128z M550.273,593.829l1.889-5.67h13.859l1.889,5.67H550.273z"/>
</svg>
