<?xml version="1.0" encoding="utf-8"?>
<!-- Generator: Adobe Illustrator 22.1.0, SVG Export Plug-In . SVG Version: 6.00 Build 0)  -->
<svg version="1.1" id="Layer_2" xmlns="http://www.w3.org/2000/svg" xmlns:xlink="http://www.w3.org/1999/xlink" x="0px" y="0px"
	 viewBox="0 0 1190.6 841.9" style="enable-background:new 0 0 1190.6 841.9;" xml:space="preserve">
<style type="text/css">
	.st0{fill:none;stroke:#000000;stroke-width:0.48;stroke-linecap:round;stroke-linejoin:round;stroke-miterlimit:10;}
	.st1{fill:#A7A9AB;}
	.st2{fill:#626366;}
	.st3{fill:#62ABF4;}
	.st4{fill:#FFFFFF;}
	.st5{fill:#33CC33;}
</style>
<path class="st0" d="M410.8,258.5v10.4"/>
<polygon class="st1" points="862.7,147.8 774.5,147.8 774.7,160.4 392.5,160.4 392.5,150.4 262.9,150.4 262.9,331 394.2,331
	394.2,312.3 457,312.3 457,292.5 725.3,292.5 725.3,292.2 755,292.2 755,307.3 732,307.3 732,537.8 651,537.8 651,498.1
	305.6,498.1 305.6,679.3 818.9,680.4 818.9,625.7 862.7,625.7 "/>
<g>
	<rect x="732.2" y="267.8" width="1.7" height="21.1"/>
	<rect x="728.8" y="267.8" width="1.7" height="21.1"/>
	<rect x="725.4" y="267.8" width="1.7" height="21.1"/>
	<rect x="722" y="267.8" width="1.7" height="21.1"/>
	<rect x="735.6" y="267.8" width="1.7" height="21.1"/>
	<rect x="739" y="267.8" width="1.7" height="21.1"/>
	<rect x="742.4" y="267.8" width="1.7" height="21.1"/>
	<rect x="745.8" y="267.8" width="1.7" height="21.1"/>
	<rect x="749.2" y="267.8" width="1.7" height="21.1"/>
	<rect x="752.6" y="267.8" width="1.7" height="21.1"/>
	<rect x="756" y="267.8" width="1.7" height="21.1"/>
</g>
<polygon class="st2" points="390.7,150.4 308.8,150.4 308.8,230.8 379.8,230.8 379.8,226.6 390.7,226.6 "/>
<rect x="394.4" y="192.6" class="st2" width="53" height="27.2"/>
<rect x="449.7" y="192.6" class="st2" width="25.8" height="27.2"/>
<rect x="477.7" y="192.6" class="st2" width="39.1" height="27.2"/>
<rect x="519.1" y="192.6" class="st2" width="27.8" height="27.2"/>
<rect x="549.2" y="192.6" class="st2" width="25.3" height="27.2"/>
<rect x="576.7" y="192.6" class="st2" width="27.2" height="27.2"/>
<rect x="606.2" y="192.6" class="st2" width="25.3" height="27.2"/>
<rect x="633.7" y="192.6" class="st2" width="14.2" height="27.2"/>
<rect x="650.3" y="192.6" class="st2" width="42.1" height="27.2"/>
<rect x="694.8" y="192.6" class="st2" width="25.8" height="27.2"/>
<rect x="722.9" y="192.6" class="st2" width="25.2" height="27.2"/>
<rect x="750.5" y="192.6" class="st2" width="26.6" height="27.2"/>
<rect x="779.5" y="147.2" class="st2" width="38.6" height="29.8"/>
<rect x="779.4" y="179.8" class="st2" width="25.6" height="16.7"/>
<rect x="820" y="147.8" class="st2" width="42.7" height="41"/>
<rect x="820" y="190.9" class="st2" width="42.7" height="27.1"/>
<rect x="779.4" y="199.1" class="st3" width="12" height="18.7"/>
<rect x="792.6" y="198.7" class="st3" width="12.4" height="21"/>
<rect x="829.7" y="220.3" class="st2" width="33" height="25.3"/>
<rect x="829.9" y="246.9" class="st2" width="32.8" height="19.8"/>
<rect x="829.9" y="268" class="st2" width="32.8" height="19.8"/>
<rect x="829.9" y="289.1" class="st2" width="32.8" height="19.8"/>
<rect x="829.9" y="310.1" class="st2" width="32.8" height="19.8"/>
<rect x="829.9" y="331.2" class="st2" width="32.8" height="19.8"/>
<rect x="829.9" y="352.3" class="st2" width="32.8" height="19.8"/>
<rect x="829.9" y="373.3" class="st2" width="32.8" height="19.8"/>
<rect x="829.9" y="394.4" class="st2" width="32.8" height="19.8"/>
<rect x="829.9" y="415.5" class="st2" width="32.8" height="19.8"/>
<rect x="829.9" y="436.6" class="st2" width="32.8" height="19.8"/>
<rect x="829.9" y="457.6" class="st2" width="32.8" height="19.8"/>
<rect x="731.9" y="310.1" class="st2" width="44.8" height="19.8"/>
<rect x="731.9" y="331.2" class="st2" width="44.8" height="19.8"/>
<rect x="731.9" y="352.3" class="st2" width="44.8" height="19.8"/>
<rect x="731.9" y="373.3" class="st2" width="44.8" height="19.8"/>
<rect x="731.9" y="394.4" class="st2" width="44.8" height="19.8"/>
<rect x="731.9" y="415.5" class="st2" width="44.8" height="19.8"/>
<rect x="731.9" y="436.6" class="st2" width="44.8" height="19.8"/>
<rect x="731.9" y="457.6" class="st2" width="44.8" height="19.8"/>
<polygon class="st2" points="862.7,478.7 829.9,478.7 829.9,495.6 847.7,495.6 847.7,497.7 862.7,497.7 "/>
<rect x="806.5" y="220.3" class="st2" width="22.3" height="88.6"/>
<rect x="788.2" y="323.3" class="st2" width="31.9" height="45.7"/>
<rect x="800.9" y="370" class="st2" width="19.3" height="11"/>
<rect x="788.2" y="382.1" class="st2" width="31.9" height="44.5"/>
<rect x="788.2" y="427.8" class="st2" width="31.9" height="49.6"/>
<rect x="763.9" y="501.4" class="st3" width="32.2" height="16.8"/>
<rect x="781.6" y="520.2" class="st3" width="14.9" height="18.4"/>
<rect x="763.9" y="528.8" class="st3" width="16.3" height="10.4"/>
<rect x="798.4" y="500.2" class="st2" width="20" height="10.4"/>
<rect x="798.4" y="511.8" class="st2" width="20" height="26.8"/>
<rect x="820.1" y="500.3" class="st2" width="21.1" height="38.5"/>
<polygon class="st2" points="861.1,500.3 848.2,500.3 848.2,519 841.9,519 841.9,538.8 861.2,538.8 "/>
<rect x="721.9" y="248.3" class="st3" width="48.8" height="17"/>
<rect x="608.5" y="230.4" class="st2" width="35.8" height="19.2"/>
<rect x="496.3" y="230.4" class="st2" width="52.8" height="19.2"/>
<rect x="481.5" y="230.4" class="st2" width="13.1" height="19.2"/>
<rect x="645.7" y="230.2" class="st2" width="42.8" height="19.4"/>
<rect x="707.4" y="260.8" class="st2" width="12.1" height="31.6"/>
<rect x="679.2" y="260.8" class="st2" width="26.6" height="31.6"/>
<rect x="651" y="260.8" class="st2" width="26.6" height="31.6"/>
<rect x="620.3" y="260.8" class="st2" width="26.6" height="31.6"/>
<rect x="591.8" y="260.8" class="st2" width="26.6" height="31.6"/>
<rect x="563.4" y="260.8" class="st2" width="26.6" height="31.6"/>
<rect x="535" y="260.8" class="st2" width="26.6" height="31.6"/>
<rect x="506.5" y="260.8" class="st2" width="26.6" height="31.6"/>
<rect x="478.1" y="260.8" class="st2" width="26.6" height="31.6"/>
<polygon class="st2" points="330.6,255.6 330.6,248.8 308.9,248.8 308.9,287.8 348.8,287.9 348.8,255.6 "/>
<polygon class="st2" points="380,255.6 380,250.6 362,250.6 362,255.6 351.5,255.6 351.5,331.1 390.8,331 390.8,255.6 "/>
<g>
	<rect x="407.2" y="247.9" width="1.7" height="21.1"/>
	<rect x="403.8" y="247.9" width="1.7" height="21.1"/>
	<rect x="400.4" y="247.9" width="1.7" height="21.1"/>
	<rect x="396.9" y="247.9" width="1.7" height="21.1"/>
	<rect x="410.6" y="247.9" width="1.7" height="21.1"/>
	<rect x="414" y="247.9" width="1.7" height="21.1"/>
	<rect x="417.4" y="247.9" width="1.7" height="21.1"/>
	<rect x="420.8" y="247.9" width="1.7" height="21.1"/>
	<rect x="424.2" y="247.9" width="1.7" height="21.1"/>
	<rect x="427.6" y="247.9" width="1.7" height="21.1"/>
</g>
<rect x="393.4" y="271.4" class="st3" width="35.9" height="16.2"/>
<rect x="393.4" y="290.4" class="st3" width="36.1" height="18.4"/>
<rect x="431.1" y="297.2" class="st3" width="10.7" height="11.5"/>
<rect x="443.4" y="297.2" class="st3" width="10.8" height="11.3"/>
<g>
	<rect x="661.6" y="541.9" width="1.7" height="21.1"/>
	<rect x="658.2" y="541.9" width="1.7" height="21.1"/>
	<rect x="654.8" y="541.9" width="1.7" height="21.1"/>
	<rect x="651.4" y="541.9" width="1.7" height="21.1"/>
	<rect x="665" y="541.9" width="1.7" height="21.1"/>
	<rect x="668.4" y="541.9" width="1.7" height="21.1"/>
	<rect x="671.8" y="541.9" width="1.7" height="21.1"/>
	<rect x="675.2" y="541.9" width="1.7" height="21.1"/>
	<rect x="678.6" y="541.9" width="1.7" height="21.1"/>
	<rect x="682" y="541.9" width="1.7" height="21.1"/>
	<rect x="685.4" y="541.9" width="1.7" height="21.1"/>
</g>
<rect x="651.1" y="565.6" class="st3" width="49.8" height="16.7"/>
<rect x="651.5" y="584.3" class="st3" width="31.8" height="15.7"/>
<rect x="701.6" y="584.2" class="st3" width="11.6" height="15.8"/>
<rect x="714.7" y="584.2" class="st2" width="16.9" height="15.8"/>
<rect x="703" y="570.5" class="st2" width="27.6" height="11.9"/>
<rect x="703" y="557.8" class="st2" width="15.1" height="11.6"/>
<rect x="750.5" y="609.7" class="st2" width="10.8" height="27.8"/>
<rect x="736.9" y="609.7" class="st2" width="11.6" height="27.8"/>
<rect x="722.5" y="609.7" class="st2" width="12.5" height="27.8"/>
<rect x="708.1" y="609.7" class="st2" width="12.5" height="27.8"/>
<rect x="693.7" y="609.7" class="st2" width="12.5" height="27.8"/>
<rect x="665.4" y="609.7" class="st2" width="26.4" height="27.8"/>
<rect x="636.9" y="609.7" class="st2" width="26.6" height="27.8"/>
<rect x="607.6" y="609.7" class="st2" width="27.4" height="27.8"/>
<rect x="578.1" y="609.7" class="st2" width="26.8" height="27.8"/>
<rect x="549.4" y="609.7" class="st2" width="26.8" height="27.8"/>
<rect x="520.7" y="609.7" class="st2" width="26.8" height="27.8"/>
<rect x="492.1" y="609.7" class="st2" width="26.8" height="27.8"/>
<rect x="463.4" y="609.7" class="st2" width="26.8" height="27.8"/>
<rect x="434.7" y="609.7" class="st2" width="26.8" height="27.8"/>
<rect x="476.4" y="542.4" class="st2" width="14.8" height="27.8"/>
<rect x="493" y="542.4" class="st2" width="26.6" height="27.8"/>
<rect x="521.4" y="542.4" class="st2" width="26.3" height="27.8"/>
<rect x="549.5" y="542.4" class="st2" width="26.6" height="27.8"/>
<rect x="577.9" y="542.4" class="st2" width="26.6" height="27.8"/>
<rect x="607.6" y="542.4" class="st2" width="26.6" height="27.8"/>
<rect x="636.2" y="542.4" class="st2" width="12.6" height="27.8"/>
<rect x="481" y="580" class="st2" width="34.6" height="20"/>
<rect x="517.9" y="580" class="st2" width="45" height="20"/>
<rect x="565.3" y="580" class="st2" width="37" height="20"/>
<g>
	<rect x="416" y="542.2" width="1.7" height="21.1"/>
	<rect x="412.6" y="542.2" width="1.7" height="21.1"/>
	<rect x="409.2" y="542.2" width="1.7" height="21.1"/>
	<rect x="405.8" y="542.2" width="1.7" height="21.1"/>
	<rect x="419.4" y="542.2" width="1.7" height="21.1"/>
	<rect x="422.8" y="542.2" width="1.7" height="21.1"/>
	<rect x="426.2" y="542.2" width="1.7" height="21.1"/>
	<rect x="429.6" y="542.2" width="1.7" height="21.1"/>
	<rect x="433" y="542.2" width="1.7" height="21.1"/>
	<rect x="436.4" y="542.2" width="1.7" height="21.1"/>
	<rect x="439.8" y="542.2" width="1.7" height="21.1"/>
</g>
<rect x="413.8" y="566" class="st3" width="27.6" height="15.6"/>
<rect x="443.9" y="583.9" class="st3" width="14.8" height="12.7"/>
<rect x="407.5" y="583.9" class="st3" width="18.5" height="16.1"/>
<rect x="391.3" y="583.9" class="st3" width="13.7" height="16.1"/>
<rect x="443.6" y="554.5" class="st2" width="15.1" height="28.1"/>
<rect x="391.3" y="609.2" class="st2" width="40.8" height="30.7"/>
<rect x="308.6" y="651.4" class="st2" width="12.1" height="27.9"/>
<rect x="322.1" y="651.4" class="st2" width="12.8" height="27.9"/>
<rect x="336.3" y="651.4" class="st2" width="12.8" height="27.9"/>
<rect x="350.4" y="651.4" class="st2" width="12.8" height="27.9"/>
<rect x="364.5" y="651.4" class="st2" width="12.8" height="27.9"/>
<rect x="378.7" y="651.4" class="st2" width="12.8" height="27.9"/>
<rect x="392.8" y="651.4" class="st2" width="12.8" height="27.9"/>
<rect x="407" y="651.4" class="st2" width="12.8" height="27.9"/>
<rect x="421.1" y="651.4" class="st2" width="12.8" height="27.9"/>
<rect x="308.6" y="498.1" class="st2" width="12.1" height="29.8"/>
<rect x="322.1" y="498.1" class="st2" width="12.8" height="29.8"/>
<rect x="336.3" y="498.1" class="st2" width="12.8" height="29.8"/>
<rect x="350.4" y="498.1" class="st2" width="12.8" height="29.8"/>
<rect x="364.5" y="498.1" class="st2" width="12.8" height="29.8"/>
<rect x="378.7" y="498.1" class="st2" width="12.8" height="29.8"/>
<rect x="392.8" y="498.1" class="st2" width="12.8" height="29.8"/>
<rect x="407" y="498.1" class="st2" width="12.8" height="29.8"/>
<rect x="421.1" y="498.1" class="st2" width="12.8" height="29.8"/>
<rect x="435.3" y="498.1" class="st2" width="12.8" height="29.8"/>
<rect x="449.4" y="498.1" class="st2" width="27.5" height="29.8"/>
<rect x="351.4" y="540.2" class="st2" width="26.6" height="20.9"/>
<rect x="351.4" y="562.8" class="st2" width="26.6" height="18.3"/>
<rect x="351.4" y="582.8" class="st2" width="26.6" height="14.4"/>
<rect x="351.4" y="598.8" class="st2" width="26.6" height="18.3"/>
<rect x="351.4" y="618.8" class="st2" width="26.6" height="21.2"/>
<rect x="787.3" y="370" class="st4" width="12.4" height="11.1"/>
<g id="Livello_2_1_">
	<g id="Livello_2-2">
		<polygon class="st5" points="309.5,288 309.5,150.5 263.5,150.5 263.5,331.1 303.5,331.1 309.5,331.1 349.4,331.1 349.4,288 		"/>
		<rect x="393.1" y="160.6" class="st5" width="382.2" height="32.2"/>
		<polygon class="st5" points="863.3,538.8 762,538.8 762,592.1 762,625.8 762,637.9 434.7,637.9 434.7,680.5 762,680.5
			794.4,680.5 819.5,680.5 819.5,625.8 863.3,625.8 		"/>
		<rect x="477.5" y="498.3" class="st5" width="174.1" height="44.3"/>
		<rect x="306.2" y="528" class="st5" width="45.8" height="123.5"/>
	</g>
</g>
</svg>
