<?xml version="1.0" encoding="utf-8"?>
<!-- Generator: Adobe Illustrator 16.0.0, SVG Export Plug-In . SVG Version: 6.00 Build 0)  -->
<!DOCTYPE svg PUBLIC "-//W3C//DTD SVG 1.1//EN" "http://www.w3.org/Graphics/SVG/1.1/DTD/svg11.dtd">
<svg version="1.1" id="Layer_4" xmlns="http://www.w3.org/2000/svg" xmlns:xlink="http://www.w3.org/1999/xlink" x="0px" y="0px"
	 width="1190.551px" height="841.89px" viewBox="0 0 1190.551 841.89" enable-background="new 0 0 1190.551 841.89"
	 xml:space="preserve">
<polygon fill="#A7A9AB" points="308.28,134.399 308.28,150.96 266.578,150.96 266.579,331.625 712.08,331.625 712.08,498.719 
	263.88,498.719 263.88,679.861 694.2,679.862 694.2,662.88 754.2,662.88 754.2,681 822.6,681 822.6,626.28 864.36,626.28 
	864.36,568.44 943.32,533.76 946.08,532.32 948.479,530.52 950.64,528.48 952.439,526.081 954,523.44 955.08,520.56 955.68,517.68 
	955.92,514.56 955.8,511.56 954.479,506.28 952.08,496.56 990,487.56 911.52,172.32 863.52,172.32 863.52,148.44 755.521,148.439 
	755.521,134.4 627,134.4 627.001,149.04 582.6,149.04 582.66,134.4 "/>
<polygon fill="#626366" points="393.052,150.959 266.578,150.96 266.578,228.96 377.4,228.959 377.399,223.92 393.052,223.92 "/>
<polygon fill="#FFFFFF" points="393.052,230.159 393.052,164.199 476.16,164.16 476.16,230.159 "/>
<polygon fill="#626366" points="627.001,149.04 582.6,149.04 582.66,134.4 520.679,134.4 520.679,149.16 497.28,149.16 
	497.155,228.96 626.875,228.96 "/>
<polyline fill="#626366" points="649.56,229.08 649.56,149.16 692.88,149.16 692.88,134.4 755.521,134.4 755.521,148.439 
	863.52,148.44 863.52,228.96 "/>
<rect x="818.4" y="242.814" fill="#62ABF4" width="43.199" height="16.386"/>
<rect x="818.4" y="230.377" fill="#626366" width="43.319" height="11.003"/>
<rect x="818.4" y="272.88" fill="#62ABF4" width="43.319" height="17.34"/>
<rect x="721.68" y="245.64" fill="#62ABF4" width="35.521" height="19.8"/>
<rect x="732.24" y="268.08" width="1.68" height="21.12"/>
<rect x="728.839" y="268.08" width="1.68" height="21.12"/>
<rect x="725.438" y="268.08" width="1.68" height="21.12"/>
<rect x="722.036" y="268.08" width="1.68" height="21.12"/>
<rect x="735.642" y="268.08" width="1.68" height="21.12"/>
<rect x="739.043" y="268.08" width="1.68" height="21.12"/>
<rect x="742.444" y="268.08" width="1.68" height="21.12"/>
<rect x="745.846" y="268.08" width="1.68" height="21.12"/>
<rect x="749.247" y="268.08" width="1.68" height="21.12"/>
<rect x="752.648" y="268.08" width="1.68" height="21.12"/>
<rect x="756.05" y="268.08" width="1.68" height="21.12"/>
<polygon fill="#626366" points="971.671,413.936 911.52,172.32 865.219,172.32 865.219,290.16 875.28,290.28 875.279,356.89 
	865,356.89 865,414 931.92,414 934.2,423.24 "/>
<rect x="650.64" y="266.88" fill="#626366" width="18.96" height="44.04"/>
<rect x="671.939" y="266.88" fill="#626366" width="19.439" height="44.04"/>
<polygon fill="#626366" points="718.8,266.891 710.501,267 693.72,267 693.72,310.92 712.8,310.92 712.8,291 718.8,291 "/>
<rect x="714.523" y="292.691" fill="#626366" width="18.797" height="18.109"/>
<polygon fill="#626366" points="631.68,256.68 631.68,252.96 577.32,252.96 577.32,256.68 563.695,256.68 563.695,291.9 
	560.335,291.9 560.335,256.68 547.08,256.68 547.08,252.96 492.24,252.96 492.24,256.68 476.52,256.68 476.52,310.92 645.84,310.92 
	645.84,256.68 "/>
<rect x="393.24" y="271.26" fill="#62ABF4" width="35.521" height="16.62"/>
<rect x="393.24" y="290.534" fill="#62ABF4" width="35.521" height="19.185"/>
<rect x="409.148" y="248.04" width="1.68" height="21.12"/>
<rect x="405.747" y="248.04" width="1.68" height="21.12"/>
<rect x="402.346" y="248.04" width="1.68" height="21.12"/>
<rect x="398.944" y="248.04" width="1.68" height="21.12"/>
<rect x="412.55" y="248.04" width="1.68" height="21.12"/>
<rect x="415.951" y="248.04" width="1.68" height="21.12"/>
<rect x="419.353" y="248.04" width="1.68" height="21.12"/>
<rect x="422.754" y="248.04" width="1.68" height="21.12"/>
<rect x="426.155" y="248.04" width="1.68" height="21.12"/>
<rect x="429.557" y="248.04" width="1.68" height="21.12"/>
<rect x="429.72" y="297.36" fill="#62ABF4" width="12.12" height="12.12"/>
<rect x="442.56" y="297.36" fill="#62ABF4" width="12.12" height="12.12"/>
<polygon fill="#626366" points="376.8,257.16 376.8,252.96 328.92,252.96 328.92,331.2 388.5,331.2 388.5,257.16 "/>
<polygon fill="#626366" points="314.441,257.16 314.441,252.96 266.562,252.96 266.562,331.2 326.142,331.2 326.142,257.16 "/>
<polygon fill="#626366" points="803.641,306.12 803.641,292.124 777.72,292.124 777.72,331.56 734.939,331.56 734.939,414 
	861.72,414 861.72,306.12 "/>
<rect x="734.52" y="416.52" fill="#626366" width="129.48" height="18.12"/>
<rect x="865.98" y="416.16" fill="#626366" width="18.239" height="19.08"/>
<polygon fill="#626366" points="939.345,453.121 886.2,453.121 886.2,415.68 930.273,415.68 "/>
<path fill="none" stroke="#000000" stroke-width="0.48" stroke-linecap="round" stroke-linejoin="round" stroke-miterlimit="10" d="
	M952.08,496.56"/>
<polygon fill="#626366" points="886.2,540.121 886.2,520.8 928.68,520.8 928.68,498.694 952.606,498.693 954.479,506.28 
	955.8,511.56 955.92,514.56 955.68,517.68 955.08,520.56 954,523.44 952.439,526.081 950.64,528.48 948.479,530.52 946.08,532.32 
	943.32,533.76 928.84,540.121 "/>
<polygon fill="#626366" points="945.479,476.566 928.68,476.566 928.68,496.966 950.4,496.966 "/>
<polygon fill="#626366" points="945,474.84 928.68,474.84 928.68,468.121 943.32,468.121 "/>
<rect x="886.2" y="468.121" fill="#626366" width="40.8" height="51"/>
<rect x="777.72" y="436.92" fill="#626366" width="85.8" height="59.279"/>
<rect x="734.76" y="436.92" fill="#626366" width="40.32" height="19.02"/>
<rect x="734.52" y="458.73" fill="#626366" width="33.12" height="18.12"/>
<polygon fill="#626366" points="774.84,479.64 734.88,479.64 734.88,495.72 737.641,495.72 737.641,498.96 761.28,498.96 
	761.28,495.72 774.84,495.72 "/>
<rect x="763.92" y="501.24" fill="#626366" width="97.08" height="121.681"/>
<polygon fill="#626366" points="762.24,639.72 762.24,663.6 757.439,663.6 757.439,680.76 818.88,680.76 818.88,639.72 "/>
<polygon fill="#626366" points="735.84,539.76 713.52,539.76 713.52,498.96 731.4,498.96 731.4,502.319 735.84,502.32 "/>
<rect x="692.783" y="498.719" fill="#626366" width="18.992" height="31.079"/>
<rect x="671.196" y="498.719" fill="#626366" width="19.842" height="30.96"/>
<rect x="649.609" y="498.719" fill="#626366" width="19.842" height="40.2"/>
<polygon fill="#626366" points="607.561,498.719 607.561,572.64 618.12,572.64 618.12,576 647.864,576 647.864,498.719 "/>
<rect x="650.699" y="565.603" fill="#62ABF4" width="35.521" height="16.92"/>
<rect x="406.2" y="565.44" fill="#62ABF4" width="35.521" height="16.92"/>
<rect x="660.817" y="541.679" width="1.68" height="21.121"/>
<rect x="657.416" y="541.679" width="1.68" height="21.121"/>
<rect x="654.015" y="541.679" width="1.68" height="21.121"/>
<rect x="650.613" y="541.679" width="1.68" height="21.121"/>
<rect x="664.219" y="541.679" width="1.68" height="21.121"/>
<rect x="667.62" y="541.679" width="1.68" height="21.121"/>
<rect x="671.021" y="541.679" width="1.68" height="21.121"/>
<rect x="674.423" y="541.679" width="1.68" height="21.121"/>
<rect x="677.824" y="541.679" width="1.68" height="21.121"/>
<rect x="681.226" y="541.679" width="1.68" height="21.121"/>
<rect x="684.627" y="541.679" width="1.68" height="21.121"/>
<polygon fill="#626366" points="618.613,603.883 618.613,607.861 607.094,607.861 607.094,679.861 669.734,679.861 669.734,603.883 
	"/>
<rect x="672.221" y="664.141" fill="#626366" width="19.32" height="15.72"/>
<polygon fill="#626366" points="593.173,608.101 593.173,601.141 575.134,601.141 575.134,604.021 531.974,604.021 531.974,608.101 
	520.574,608.101 520.574,679.861 603.375,679.861 603.375,608.101 "/>
<polygon fill="#626366" points="508.33,608.101 508.33,604.021 489.01,604.021 489.01,608.101 478.09,608.101 478.09,679.861 
	518.771,679.861 518.771,608.101 "/>
<polygon fill="#626366" points="465.85,608.101 465.85,604.021 446.529,604.021 446.529,608.101 435.609,608.101 435.609,679.861 
	476.29,679.861 476.29,608.101 "/>
<polygon fill="#626366" points="423.369,608.101 423.369,604.021 404.048,604.021 404.048,608.101 393.128,608.101 393.128,679.861 
	433.809,679.861 433.809,608.101 "/>
<polygon fill="#626366" points="380.887,608.101 380.887,604.021 361.567,604.021 361.567,608.101 350.647,608.101 350.647,679.861 
	391.327,679.861 391.327,608.101 "/>
<polygon fill="#626366" points="338.396,619.441 338.396,615.361 319.075,615.361 319.075,619.441 308.155,619.441 308.155,679.861 
	348.836,679.861 348.836,619.441 "/>
<polygon fill="#626366" points="295.912,619.441 295.912,615.361 276.592,615.361 276.592,619.441 263.88,619.441 263.88,679.861 
	306.352,679.861 306.352,619.441 "/>
<rect x="415.804" y="541.799" width="1.68" height="21.121"/>
<rect x="412.403" y="541.799" width="1.68" height="21.121"/>
<rect x="409.001" y="541.799" width="1.68" height="21.121"/>
<rect x="405.6" y="541.799" width="1.68" height="21.121"/>
<rect x="419.206" y="541.799" width="1.68" height="21.121"/>
<rect x="422.607" y="541.799" width="1.68" height="21.121"/>
<rect x="426.008" y="541.799" width="1.68" height="21.121"/>
<rect x="429.41" y="541.799" width="1.68" height="21.121"/>
<rect x="432.811" y="541.799" width="1.68" height="21.121"/>
<rect x="436.212" y="541.799" width="1.68" height="21.121"/>
<rect x="439.614" y="541.799" width="1.68" height="21.121"/>
<rect x="476.4" y="501.24" fill="#62ABF4" width="20.1" height="39.601"/>
<rect x="499.08" y="501.24" fill="#62ABF4" width="19.375" height="39.721"/>
<polygon fill="#626366" points="603.96,498.719 520.98,498.719 520.98,572.88 531.84,572.88 531.84,576.48 594.48,576.48 
	594.48,572.88 603.96,572.88 "/>
<rect x="412.44" y="498.719" fill="#626366" width="44.16" height="40.681"/>
<polygon fill="#626366" points="350.52,498.719 350.52,567.42 361.08,567.42 361.08,571.68 391.245,571.68 391.245,498.719 "/>
<polygon fill="#626366" points="263.88,498.719 263.88,563.16 277.68,563.16 277.68,571.68 337.32,571.68 337.32,567.121 
	347.76,567.121 347.76,498.719 "/>
</svg>
