<svg version="1.1" id="Layer_3" xmlns="http://www.w3.org/2000/svg" xmlns:xlink="http://www.w3.org/1999/xlink" x="0px" y="0px" style="enable-background:new 0 0 1190.6 841.9;" xml:space="preserve" viewBox="240 120 650 550">
<style type="text/css">
	.st0{fill:#A7A9AB;}
	.st1{fill:#FFFFFF;}
	.st2{fill:#626366;}
	.st3{fill:#62ABF4;}
	.st4{fill:#66CC66;}
</style>
<path class="st0" d="M881.4,603.5l77.6-34.1l4.7-2.3l4.6-2.9l4.3-3.1l4-3.6l3.6-3.8l3.4-4.2l2.9-4.4l2.5-4.7l2.2-4.9l1.7-5l1.2-5.2  l0.7-5.3l0.2-5.3l-0.1-5.4l-0.6-5.3l-1.2-5.2l-3-11.3l-78.5-315.2h-48v-23.9h-108l0.1-14H627V149h-44.4l0.1-14.6H305.1v-2.2h-36  l-3.8,0.2l-3.8,0.6l-3.6,1.2l-3.5,1.6l-3.4,1.9l-3,2.4l-2.6,2.8l-2.4,3l-2,3.2l-1.6,3.5l-1.1,3.7l-0.7,3.7l-0.2,3.8v58.6h29.3v109.1  h445.5v167.1H263.9v181.1h558.7v-53.6h41.8v-22.8L881.4,603.5z"/>
<rect x="266.6" y="192.6" class="st1" width="39.4" height="39"/>
<rect x="266.5" y="173" class="st2" width="39.5" height="17.9"/>
<rect x="721.9" y="248.3" class="st3" width="35.5" height="17.3"/>
<rect x="732.4" y="268.2" width="1.7" height="21.1"/>
<rect x="729" y="268.2" width="1.7" height="21.1"/>
<rect x="725.6" y="268.2" width="1.7" height="21.1"/>
<rect x="722.2" y="268.2" width="1.7" height="21.1"/>
<rect x="735.8" y="268.2" width="1.7" height="21.1"/>
<rect x="739.2" y="268.2" width="1.7" height="21.1"/>
<rect x="742.6" y="268.2" width="1.7" height="21.1"/>
<rect x="746" y="268.2" width="1.7" height="21.1"/>
<rect x="749.4" y="268.2" width="1.7" height="21.1"/>
<rect x="752.8" y="268.2" width="1.7" height="21.1"/>
<rect x="756.2" y="268.2" width="1.7" height="21.1"/>
<rect x="266.5" y="164.4" class="st3" width="24.1" height="7.1"/>
<polygon class="st2" points="284.9,149.9 284.9,162.9 291.8,162.9 291.8,171.4 307.6,171.4 307.6,229.4 321.4,229.4 321.4,222.4   336.6,222.4 336.6,229.4 349.4,229.4 349.4,149.9 "/>
<polygon class="st2" points="390.6,149.9 371,149.9 364,149.9 350.8,149.9 350.8,227.2 371,227.2 371,222.4 390.6,222.4 "/>
<polygon class="st2" points="476,164.9 393.3,164.9 393.3,222.4 410.7,222.4 410.7,227.4 466.1,227.4 466.1,222.4 476,222.4 "/>
<polygon class="st2" points="561.5,164.9 478.8,164.9 478.8,222.4 489.7,222.4 489.7,227.4 550.6,227.4 550.6,222.4 561.5,222.4 "/>
<polygon xmlns="http://www.w3.org/2000/svg" class="st2" points="646.9,164.9 564.2,164.9 564.2,222.4 575.1,222.4 575.1,227.4 636.1,227.4 636.1,222.4 646.9,222.4 " style="fill: #ffeb3b"/>
<polygon class="st2" points="733.6,164.9 650.9,164.9 650.9,222.4 661.8,222.4 661.8,227.4 722.8,227.4 722.8,222.4 733.6,222.4 "/>
<polygon class="st2" points="817.8,164.9 736.8,164.9 736.8,222.4 746.9,222.4 746.9,227.4 807.9,227.4 807.9,222.4 817.8,222.4 "/>
<rect x="821.9" y="148.3" class="st2" width="41.6" height="21"/>
<rect x="832.3" y="171" class="st2" width="31.2" height="19.6"/>
<rect x="832.3" y="192.7" class="st2" width="31.2" height="35.9"/>
<rect x="825.1" y="250.8" class="st2" width="14.2" height="37.2"/>
<rect x="841.9" y="250.8" class="st2" width="19.4" height="37.2"/>
<rect x="694.4" y="257" class="st2" width="25" height="31.1"/>
<polygon class="st2" points="662.8,250.9 662.8,257 651.1,257 651.1,288.1 692.5,288.1 692.5,250.9 "/>
<polygon class="st2" points="574.4,250.9 574.4,257 563.6,257 563.6,288.1 604.2,288.1 604.2,250.9 "/>
<polygon class="st2" points="636,250.9 636,257 646.8,257 646.8,288.1 606.2,288.1 606.2,250.9 "/>
<polygon class="st2" points="489.2,250.9 489.2,257 478.4,257 478.4,288.1 518.9,288.1 518.9,250.9 "/>
<polygon class="st2" points="550.8,250.9 550.8,257 561.5,257 561.5,288.1 521,288.1 521,250.9 "/>
<rect x="393.6" y="272" class="st3" width="35.5" height="16.2"/>
<rect x="393.6" y="290.4" class="st3" width="35.5" height="18.5"/>
<rect x="409.3" y="248.3" width="1.7" height="21.1"/>
<rect x="405.9" y="248.3" width="1.7" height="21.1"/>
<rect x="402.5" y="248.3" width="1.7" height="21.1"/>
<rect x="399.1" y="248.3" width="1.7" height="21.1"/>
<rect x="412.7" y="248.3" width="1.7" height="21.1"/>
<rect x="416.1" y="248.3" width="1.7" height="21.1"/>
<rect x="419.5" y="248.3" width="1.7" height="21.1"/>
<rect x="422.9" y="248.3" width="1.7" height="21.1"/>
<rect x="426.3" y="248.3" width="1.7" height="21.1"/>
<rect x="429.7" y="248.3" width="1.7" height="21.1"/>
<rect x="430.2" y="297.2" class="st3" width="11.8" height="11.9"/>
<rect x="443.3" y="297.2" class="st3" width="11.4" height="11.9"/>
<polygon class="st2" points="379.8,256.6 379.8,254.3 361,254.3 361,256.6 350.8,256.6 350.8,331.6 390.2,331.6 390.2,256.6 "/>
<polygon class="st2" points="337.5,256.6 337.5,254.3 318.7,254.3 318.7,256.6 308.5,256.6 308.5,331.6 347.9,331.6 347.9,256.6 "/>
<rect x="266.6" y="269" class="st2" width="39.1" height="62.6"/>
<polygon class="st2" points="799.8,311.6 735.7,311.6 735.7,456.6 776.3,456.6 776.3,370.2 799.8,370.2 "/>
<rect x="778.9" y="373.4" class="st2" width="20.9" height="20.3"/>
<rect x="779" y="395.5" class="st2" width="20.8" height="19"/>
<rect x="779" y="416.2" class="st3" width="20.8" height="13.6"/>
<rect x="779" y="431.9" class="st3" width="20.5" height="12.8"/>
<rect x="779" y="447.2" class="st3" width="7.9" height="11"/>
<rect x="787.7" y="447.2" class="st3" width="12.1" height="10.9"/>
<rect x="764.2" y="499.6" class="st2" width="12.5" height="19.9"/>
<rect x="777.9" y="507.2" class="st2" width="27" height="12.2"/>
<rect x="806.1" y="499.6" class="st2" width="12.1" height="19.9"/>
<rect x="819.5" y="507.2" class="st2" width="20.8" height="12.2"/>
<rect x="848.2" y="499.6" class="st2" width="13.1" height="19.9"/>
<rect x="764.2" y="520.7" class="st2" width="97.1" height="98.9"/>
<polygon class="st2" points="761.9,626.3 761.9,619.8 752.4,619.8 752.4,616.2 721.7,616.2 721.7,613.3 707.2,613.3 707.2,619.8   694.7,619.8 694.7,679.9 822.6,679.9 822.6,626.3 "/>
<rect x="671.3" y="640" class="st2" width="20.9" height="18"/>
<rect x="671.8" y="660" class="st2" width="20.5" height="19.9"/>
<polygon class="st2" points="693,606.7 680.8,606.7 680.8,600.6 666.7,600.6 666.7,602.8 619.1,602.8 619.1,606.7 608.8,606.7   608.8,679.6 669.6,679.6 669.6,638.3 693,638.3 "/>
<polygon class="st2" points="593.5,606.7 593.5,600.6 576.5,600.6 576.5,603 531,603 531,606.7 520.9,606.7 520.9,680.3   603.5,680.3 603.5,606.7 "/>
<rect x="500.5" y="655.5" class="st2" width="17.4" height="24.4"/>
<polygon class="st2" points="518.7,606.7 508.4,606.7 508.4,600.6 494.4,600.6 494.4,602.8 445.9,602.8 445.9,606.7 435.6,606.7   435.6,679.6 498.9,679.6 498.9,653.9 518.7,653.9 "/>
<polygon class="st2" points="423.7,600.6 393.5,600.6 393.5,679.9 433.4,679.9 433.4,606.9 423.7,606.9 "/>
<polygon class="st2" points="380.6,619.4 380.6,613 322.1,613 322.1,619.4 307.9,619.4 307.9,679.6 391.1,679.6 391.1,619.4 "/>
<rect x="307.7" y="500.8" class="st2" width="20.2" height="19.6"/>
<rect x="329.2" y="501" class="st2" width="32.3" height="19.3"/>
<polygon class="st2" points="362.6,501 362.6,521.5 349.3,521.5 349.3,536.9 391.2,536.9 391.2,501 "/>
<polygon class="st2" points="307.7,521.6 307.7,560.8 321.7,560.8 321.7,575.5 347.8,575.5 347.8,521.6 "/>
<polygon class="st2" points="391.3,539 349.3,539 349.4,575.5 380.9,575.5 380.9,560.4 391.3,560.4 "/>
<rect x="393.8" y="529" class="st2" width="17.6" height="10.2"/>
<rect x="448.4" y="525.5" class="st2" width="16" height="13.6"/>
<rect x="436.4" y="500.3" class="st2" width="19.4" height="16.1"/>
<rect x="457.7" y="500.3" class="st2" width="18.4" height="16.1"/>
<polygon class="st2" points="434.6,517.7 434.6,504.1 433.2,504.1 433.2,500.6 393.8,500.6 393.8,527.2 412.6,527.2 412.6,539.4   447.4,539.4 447.4,524.3 465.4,524.3 465.4,536 475.7,536 475.7,517.7 "/>
<rect x="406" y="565.7" class="st3" width="35.5" height="17.3"/>
<g>
	<rect x="416" y="542.2" width="1.7" height="21.1"/>
	<rect x="412.6" y="542.2" width="1.7" height="21.1"/>
	<rect x="409.2" y="542.2" width="1.7" height="21.1"/>
	<rect x="405.8" y="542.2" width="1.7" height="21.1"/>
	<rect x="419.4" y="542.2" width="1.7" height="21.1"/>
	<rect x="422.8" y="542.2" width="1.7" height="21.1"/>
	<rect x="426.2" y="542.2" width="1.7" height="21.1"/>
	<rect x="429.6" y="542.2" width="1.7" height="21.1"/>
	<rect x="433" y="542.2" width="1.7" height="21.1"/>
	<rect x="436.4" y="542.2" width="1.7" height="21.1"/>
	<rect x="439.8" y="542.2" width="1.7" height="21.1"/>
</g>
<polygon class="st3" points="496.7,500.3 477.8,500.3 477.8,541.9 485.9,541.9 485.9,528.1 496.7,528.1 "/>
<polygon class="st3" points="499.6,500.3 518.5,500.3 518.5,541.9 510.4,541.9 510.4,528.1 499.6,528.1 "/>
<rect x="487" y="529.2" class="st3" width="10.6" height="11.5"/>
<rect x="498.6" y="529.2" class="st3" width="10.6" height="11.5"/>
<polygon class="st2" points="603.8,500.6 521.4,500.6 521.4,572.8 532,572.8 532,575.6 576,575.6 576,579.4 593.5,579.4   593.5,572.8 603.8,572.8 "/>
<polygon class="st2" points="609,500.6 609,572.3 620.2,572.3 620.2,578.9 648.5,578.9 648.5,572.3 648.5,568.4 648.5,500.6 "/>
<rect x="651.1" y="565.3" class="st3" width="49.2" height="17.3"/>
<g>
	<rect x="661.2" y="542" width="1.7" height="21.1"/>
	<rect x="657.8" y="542" width="1.7" height="21.1"/>
	<rect x="654.4" y="542" width="1.7" height="21.1"/>
	<rect x="651" y="542" width="1.7" height="21.1"/>
	<rect x="664.6" y="542" width="1.7" height="21.1"/>
	<rect x="668" y="542" width="1.7" height="21.1"/>
	<rect x="671.4" y="542" width="1.7" height="21.1"/>
	<rect x="674.8" y="542" width="1.7" height="21.1"/>
	<rect x="678.2" y="542" width="1.7" height="21.1"/>
	<rect x="681.6" y="542" width="1.7" height="21.1"/>
	<rect x="685" y="542" width="1.7" height="21.1"/>
</g>
<g id="Livello_2_1_">
	<g id="Livello_2-2">
		<path class="st4" d="M755.5,148.4l0.1-14H627V149h-44.4l0.1-14.6H305v-2.2h-36l-3.8,0.2l-3.8,0.6l-3.6,1.2l-3.5,1.6l-3.3,1.9    l-3,2.4l-2.7,2.8l-2.4,3l-2,3.2l-1.6,3.5l-1,3.7l-0.8,3.7l-0.2,3.8v58.6h29.3v-58c0.4-2.9,1.6-5.7,3.4-8c5.3-6.7,13.8-6.6,15-6.5    h105.7v15h431.2v-16.4L755.5,148.4z"/>
		<rect x="263.9" y="498.7" class="st4" width="43.9" height="181.1"/>
		<polygon class="st4" points="994.8,509.3 994.2,504 993,498.8 990,487.6 911.5,172.3 864.8,172.3 864.8,603.5 881.4,603.5     959,569.4 963.7,567.1 968.3,564.2 972.6,561.1 976.6,557.5 980.2,553.7 983.5,549.5 986.4,545 988.9,540.4 991.1,535.4     992.8,530.4 994,525.2 994.7,520 994.9,514.7   "/>
		<polygon class="st4" points="454.8,288.3 454.8,309.2 390.3,309.2 390.3,331.7 719.3,331.7 719.3,310.7 719.3,309.2 719.3,288.3       "/>
		<polygon class="st4" points="650.8,498.9 650.8,542.2 712,542.2 712,498.9   "/>
	</g>
</g>
</svg>